<?xml version="1.0" encoding="utf-8"?>
<!-- Generator: Adobe Illustrator 27.5.0, SVG Export Plug-In . SVG Version: 6.00 Build 0)  -->
<svg version="1.1" id="Capa_2" xmlns="http://www.w3.org/2000/svg" xmlns:xlink="http://www.w3.org/1999/xlink" x="0px" y="0px"
	 viewBox="0 0 1975 2279" style="enable-background:new 0 0 1975 2279;" xml:space="preserve">
<path style="fill:#F8C1AE;" d="M1458.13,1153.65c-17.992,9.085-30.823,26.449-49.021,35.115
	c-27.319,13.011-59.388,3.719-88.758-3.568c-29.369-7.287-64.208-11.062-86.447,9.458c-30.902,28.512-19.509,88.052-55.138,110.377
	c-22.867,14.328-52.649,4.83-79.447,8.003c-51.72,6.126-87.037,65.69-74.795,116.312c5.189,21.456,17.063,40.455,32.98,55.458
	c-32.585,35.103-62.069,73.125-88.273,113.259c-20.581,31.521-39.204,64.256-56.043,97.894
	c23.641-77.135,41.852-155.932,54.604-235.595c1.514-9.457,2.952-18.925,4.315-28.403c0.475-0.797,0.825-1.666,1.018-2.502
	c15.085-65.354,36.32-129.17,63.318-190.568c25.603-58.226,56.193-114.245,91.283-167.294c26.3,17.526,58.969,26.189,90.7,23.115
	c3.071,24.948,33.948,39.233,57.982,31.87c24.033-7.363,40.557-29.921,49.358-53.467c8.8-23.545,11.569-48.875,18.313-73.089
	c6.744-24.214,18.614-48.602,39.971-61.857c35.646-22.122,86.517-7.027,120.219-32.013c33.201-24.615,27.495-74.253,39.269-113.87
	c21.186-71.284,63.45-116.652,135.324-170.822c-80.099,34.013-128.141-8.705-179.242,27.952
	c-17.734,12.723-28.567,33.441-46.591,45.749c-27.061,18.479-62.923,13.887-95.563,10.989c-32.639-2.898-70.545-1.124-90.917,24.54
	c-28.307,35.662-6.185,97.467-40.583,127.298c-22.077,19.145-55.527,13.95-83.67,21.817
	c-54.316,15.182-82.168,84.805-60.624,136.926c7.756,18.763,20.376,34.827,35.971,47.45
	c-30.021,45.771-56.825,93.675-79.975,143.266c-22.068,47.272-40.857,96.126-56.028,146.058
	c6.756-68.063,9.618-136.503,8.469-204.915c-1.275-75.943-7.327-151.792-18.325-226.931c30.153-1.789,59.478-12.609,82.101-32.894
	c45.111-40.449,50.531-120.824,4.997-160.795c-23.593-20.711-58.401-31.242-70.872-60.052
	c-19.431-44.889,30.745-94.446,19.924-142.148c-7.787-34.33-43.668-53.681-76.622-66.061
	c-32.954-12.379-69.817-24.616-87.424-55.099c-11.728-20.304-12.578-45.407-23.833-65.977
	c-32.429-59.27-98.824-40.255-160.563-110.455c44.396,85.893,64.217,149.486,51.569,228.371
	c-7.03,43.841-35.648,89.253-14.95,128.534c21.01,39.874,77.294,48.924,101.52,86.929c14.515,22.771,14.664,51.909,9.929,78.494
	c-4.734,26.585-13.838,52.401-16.27,79.295c-2.432,26.893,3.074,56.426,22.921,74.737c19.847,18.311,56.393,18.843,70.972-3.886
	c22.561,13.66,48.898,20.839,75.17,21.256c9.371,63.043,15.262,126.604,17.699,190.292c3.933,102.791-1.363,206.01-15.437,307.901
	c-11.828,85.629-30.093,170.41-54.56,253.331c5.586-49.261,6.629-98.99,3.559-148.541c-4.439-71.637-17.562-142.711-37.882-211.521
	c-8.37-28.344-18-56.329-28.831-83.843c29.415-12.952,54.456-35.099,68.409-64.223c26.179-54.642,0.401-130.964-56.97-150.448
	c-29.726-10.095-65.914-6.491-88.468-28.328c-35.142-34.024-7.774-99.019-36.039-138.94c-20.342-28.73-60.898-32.863-96.081-31.676
	c-35.182,1.186-73.922,4.002-101.862-17.414c-18.61-14.264-29.01-37.127-47.285-51.817c-52.657-42.33-106.705,0.665-190.625-40.536
	c73.909,62.339,116.575,113.491,135.105,191.205c10.298,43.19,1.255,96.1,35.42,124.459c34.68,28.786,90.138,15.589,127.073,41.418
	c22.129,15.475,33.427,42.333,39.235,68.705c5.809,26.372,7.287,53.706,15.341,79.481c8.054,25.774,24.451,50.946,49.798,60.259
	c25.346,9.313,59.309-4.193,64.072-30.773c23.956,3.655,48.762,1.033,71.581-6.923c7.877,19.785,15.126,39.821,21.73,60.069
	c21.742,66.663,36.444,135.609,43.058,205.434c6.562,69.282,5.086,139.619-6.204,208.346c-1.402,8.535-2.961,17.044-4.646,25.528
	c-0.295,1.485-0.401,3.373-0.091,5.14c-31.231,92.161-70.511,181.629-117.441,266.875c-6.095,11.071-12.328,22.065-18.673,32.995
	c-3.944,6.794,3.822,17.752,9.098,8.664c50.829-87.557,93.323-179.725,127.481-275.009c0.323-0.375,0.6-0.82,0.812-1.328
	c41.522-99.135,97.002-192.757,169.687-272.301c2.169-2.374,4.354-4.733,6.552-7.079c20.641,16.634,46.607,27.089,73.242,28.638
	c-0.747,23.2,25.394,40.627,48.371,37.328c22.976-3.299,41.263-21.532,52.642-41.763c11.379-20.231,17.508-42.95,27.106-64.084
	c9.599-21.135,23.898-41.698,45.271-50.753c35.672-15.114,79.942,5.896,114.246-12.108c33.795-17.736,35.65-63.839,52.029-98.313
	c29.471-62.028,74.49-97.41,147.775-136.612C1547.728,1173.283,1509.97,1127.471,1458.13,1153.65z"/>
<path style="fill:#F6AC8E;" d="M732.625,355.539l0.872,0.756c0.064-16.956-6.017-33.576-14.786-48.482
	c-8.938-15.192-18.466-22.984-30.077-36.541c19.038,31.87,31.264,67.207,35.769,103.38c4.369-3.018,7.117-7.153,8.343-11.849
	c-1.284-1.177-2.587-2.337-3.911-3.474C726.215,357.075,730.022,353.301,732.625,355.539z"/>
<path style="fill:#F6AC8E;" d="M788.807,501.862c-1.579-6.201-2.923-12.469-4.017-18.803c-2.639-15.277-4.114-30.705-5.665-46.122
	l-0.187-0.469c-5.148-17.232-13.116-33.426-23.467-47.954c2.174,26.02-1.06,52.116-2.578,78.128
	C766.609,476.418,778.757,488.329,788.807,501.862z"/>
<path style="fill:#F6AC8E;" d="M838.717,606.42c-14.376-16.326-31.783-29.575-51.065-39.119c5.962,6.713,12.222,13.184,18.359,19.69
	c15.158,16.07,29.762,32.846,40.165,52.447c3.297,6.213,6.11,12.545,8.362,19.078c14.095,6.254,27.331,14.4,39.27,24.189
	C875.428,657.271,856.112,632.43,838.717,606.42z"/>
<path style="fill:#F6AC8E;" d="M802.1,540.784c-1.669-3.882-3.247-7.795-4.73-11.74l-0.223-0.594
	c-1.128-3.02-2.199-6.058-3.214-9.114c-10.561-18.103-24.692-33.836-41.373-46.289c-1.04,23.629,2.639,46.169,14.644,66.856
	c3.641,6.273,7.826,12.158,12.333,17.801c16.757,6.935,32.382,16.517,46.165,28.343C816.897,571.531,808.875,556.539,802.1,540.784z
	"/>
<path style="fill:#F6AC8E;" d="M758.209,346.028c-1.93-1.981-3.876-3.945-5.83-5.898c-4.07-4.069-8.147-8.134-12.166-12.248
	c0.937,2.591,1.873,5.182,2.792,7.776c4.921,13.905,9.125,27.792,11.272,42.359c9.036,11.328,16.595,23.803,22.465,37.07
	C773.822,391.625,768.782,367.266,758.209,346.028z"/>
<path style="fill:#F6AC8E;" d="M972.655,837.97c0.371,2.913,0.677,5.839,0.917,8.778c17.625,5.534,34.358,12.621,47.134,25.192
	c-0.442-23.677,2.543-48.525-5.789-71.167c-4.784-12.996-12.877-24.271-23.26-33.421c-1.781-1.57-3.609-3.084-5.462-4.566
	C976.053,786.363,971.339,812.032,972.655,837.97z"/>
<path style="fill:#F6AC8E;" d="M802.341,527.12c3.345,8.861,7.16,17.55,11.359,26.048c6.935,14.037,14.809,27.536,23.247,40.69
	c-5.314-25.437-3.578-52.107,5.196-76.717c1.152-3.23,6.328-1.83,5.168,1.424c-10.297,28.881-10.652,60.351-1.002,89.441
	c11.219,16.487,23.135,32.526,34.982,48.513c6.136,8.28,12.35,16.722,18.504,25.328c-7.597-28.93-5.935-59.97,5.013-87.99
	c1.243-3.182,6.423-1.789,5.168,1.425c-12.781,32.712-12.599,69.169,0.474,101.752c1.213,1.767,2.42,3.54,3.62,5.32l0.658,0.755
	l0.596,1.109c22.663,33.833,42.729,70.032,52.526,108.632c1.764-18.458,6.496-36.53,13.96-53.488
	c-5.869-4.498-11.863-8.843-17.441-13.701c-8.842-7.699-16.3-17.003-20.366-28.078c-5.075-13.824-5.906-28.178-4.419-42.727
	c1.495-14.626,4.953-28.965,6.693-43.558c1.573-13.197,1.196-26.66-2.093-39.587c-5.483-21.549-20.234-38.395-37.712-51.505
	c-18.932-14.202-40.729-23.901-59.419-38.477c-14.517-11.323-26.04-25.228-33.234-42.21c-0.321-0.759-0.633-1.522-0.942-2.287
	C803.642,479.259,800.071,503.298,802.341,527.12z"/>
<path style="fill:#F6AC8E;" d="M783.114,423.824c2.581,23.492,4.137,47.183,9.296,70.301c1.144,5.123,2.465,10.199,3.949,15.224
	c0.514-20.435,5.242-40.616,13.844-59.276c-2.242-6.447-4.127-13.024-5.921-19.6c-3.23-11.836-5.537-23.962-10.381-35.29
	c-2.277-5.326-4.965-10.379-7.967-15.22C783.469,394.413,782.52,409.102,783.114,423.824z"/>
<path style="fill:#F6AC8E;" d="M781.659,373.503c-3.862-5.502-8.101-10.74-12.569-15.804c4.269,11.428,7.324,23.436,9.609,35.541
	C779.379,386.62,780.365,380.033,781.659,373.503z"/>
<path style="fill:#F6AC8E;" d="M864.192,760.174c1.44,9.903,3.929,19.574,8.299,28.695c10.164,21.215,28.748,34.589,50.351,42.688
	c13.545,5.078,28.476,8.652,43.101,12.894C945.665,803.501,908.124,772.481,864.192,760.174z"/>
<path style="fill:#F6AC8E;" d="M966.469,833.989c-4.746-30.515-16.453-59.928-31.307-87.268
	c-7.623-14.03-16.093-27.534-25.029-40.748c-14.942-17.092-33.192-30.842-53.443-40.533c0.916,3.311,1.69,6.678,2.308,10.111
	c2.28,12.671,2.743,25.583,2.974,38.427c0.238,13.268,0.063,27.007,1.498,40.439C906.735,765.838,944.504,795.077,966.469,833.989z"
	/>
<path style="fill:#403B50;" d="M965.943,844.452c0.792,1.599,1.559,3.212,2.298,4.84c0.857,11.371,0.685,22.869-0.713,34.448
	c-0.413,3.416,4.95,3.386,5.359,0c1.515-12.552,1.671-24.882,0.685-36.992c-0.24-2.939-0.546-5.865-0.917-8.778
	c-1.316-25.938,3.398-51.607,13.539-75.184c5.174-12.029,11.759-23.513,19.679-34.211c2.054-2.774-2.595-5.449-4.628-2.705
	c-7.746,10.463-14.249,21.709-19.435,33.49c-7.465,16.959-12.196,35.03-13.96,53.488c-9.798-38.6-29.863-74.799-52.526-108.632
	l-0.596-1.109l-0.658-0.755c-1.2-1.78-2.407-3.553-3.62-5.32c-13.073-32.583-13.255-69.039-0.474-101.752
	c1.256-3.214-3.924-4.607-5.168-1.425c-10.948,28.019-12.61,59.06-5.013,87.99c-6.154-8.605-12.368-17.047-18.504-25.328
	c-11.847-15.987-23.763-32.026-34.982-48.513c-9.65-29.091-9.295-60.56,1.002-89.441c1.16-3.255-4.016-4.655-5.168-1.424
	c-8.774,24.609-10.51,51.279-5.196,76.717c-8.437-13.154-16.311-26.653-23.247-40.69c-4.199-8.498-8.014-17.187-11.359-26.048
	c-2.271-23.822,1.301-47.861,10.536-69.889c0.852-2.032,1.748-4.049,2.696-6.045c1.472-3.099-3.147-5.822-4.628-2.705
	c-0.251,0.529-0.498,1.06-0.743,1.592c-8.602,18.66-13.33,38.841-13.844,59.276c-1.484-5.025-2.806-10.101-3.949-15.224
	c-5.159-23.118-6.714-46.809-9.296-70.301c-0.594-14.722,0.354-29.411,2.82-43.86c2.019-11.828,5.049-23.497,9.084-34.892
	c1.154-3.257-4.022-4.659-5.167-1.425c-3.456,9.759-6.188,19.74-8.192,29.856c-1.293,6.53-2.28,13.117-2.96,19.737
	c-2.285-12.105-5.34-24.113-9.609-35.541c-7.461-19.978-18.631-38.18-35.898-52.008c-2.667-2.136-6.482,1.633-3.789,3.79
	c12.606,10.096,21.89,22.654,28.806,36.548c10.573,21.238,15.613,45.597,18.532,69.059c-5.87-13.267-13.428-25.742-22.465-37.07
	c-6.244-7.828-13.194-15.107-20.78-21.723l-0.872-0.756c-2.602-2.238-6.409,1.536-3.789,3.789c1.324,1.138,2.627,2.297,3.911,3.474
	c8.479,7.775,16.092,16.4,22.726,25.712c10.351,14.527,18.318,30.722,23.467,47.954l0.187,0.469
	c1.551,15.417,3.025,30.845,5.665,46.122c1.094,6.333,2.438,12.602,4.017,18.803c-10.05-13.532-22.198-25.444-35.913-35.219
	c-6.891-4.912-14.178-9.286-21.794-13.054c-3.081-1.524-5.8,3.097-2.705,4.628c8.515,4.213,16.602,9.186,24.164,14.832
	c16.681,12.453,30.812,28.186,41.373,46.289c1.015,3.056,2.086,6.094,3.214,9.114l0.223,0.594c1.483,3.945,3.061,7.859,4.73,11.74
	c6.776,15.755,14.797,30.747,23.601,45.262c-13.783-11.825-29.408-21.407-46.165-28.343c-12.25-5.069-25.103-8.726-38.282-10.809
	c-3.374-0.533-4.827,4.63-1.424,5.167c16.713,2.641,32.835,7.822,47.823,15.239c19.282,9.544,36.689,22.792,51.065,39.119
	c17.395,26.01,36.711,50.851,55.091,76.285c-11.938-9.789-25.174-17.935-39.27-24.189c-13.433-5.96-27.645-10.205-42.259-12.514
	c-3.374-0.533-4.827,4.63-1.424,5.168c15.977,2.525,31.412,7.369,45.834,14.271c20.251,9.691,38.501,23.441,53.443,40.533
	c8.936,13.213,17.406,26.718,25.029,40.748c14.854,27.34,26.561,56.753,31.307,87.268c-21.965-38.912-59.734-68.151-103-79.572
	c-2.491-0.658-4.998-1.258-7.523-1.796c-3.364-0.716-4.802,4.449-1.425,5.168c3.254,0.693,6.479,1.491,9.671,2.385
	C908.124,772.481,945.665,803.501,965.943,844.452z"/>
<path style="fill:#F6AC8E;" d="M933.989,502.444c4.328,4.183,8.274,8.762,11.773,13.66c0.833,1.166,1.64,2.349,2.421,3.55
	c8.262,12.702,13.333,27.449,19.168,41.352c0.636,1.516,1.348,3.124,2.735,4.005c2.005,1.275,4.808,0.509,6.493-1.166
	c1.685-1.674,2.484-4.03,3.076-6.331c4.493-17.449-0.368-37.022-12.503-50.341c-12.135-13.319-31.172-19.977-48.963-17.123
	C921.689,489.489,931.558,500.095,933.989,502.444z"/>
<path style="fill:#F6AC8E;" d="M721.353,538.901c-0.15-1.133-0.275-2.271-0.376-3.41c-0.422-4.787-0.407-9.614,0.046-14.398
	c0.255-2.687,0.731-14.244,3.145-15.721c-12.272,7.509-20.359,21.434-20.8,35.814c-0.442,14.38,6.776,28.774,18.563,37.022
	c1.554,1.088,3.262,2.102,5.154,2.242c1.892,0.14,3.989-0.851,4.542-2.665c0.383-1.255-0.02-2.6-0.422-3.849
	C727.523,562.473,722.939,550.896,721.353,538.901z"/>
<path style="fill:#F6AC8E;" d="M1041.13,777.233c0.3,1.67,0.563,3.345,0.79,5.026c2.399,17.781,0.346,36.132-0.461,53.967
	c-0.088,1.944-0.142,4.026,0.895,5.673c1.498,2.381,4.885,2.982,7.538,2.045c2.652-0.937,4.701-3.052,6.502-5.213
	c13.656-16.392,18.381-39.799,12.152-60.204c-6.23-20.405-23.222-37.183-43.706-43.152c4.096,4.346,9.211,17.527,10.621,21.273
	C1037.971,763.318,1039.87,770.218,1041.13,777.233z"/>
<path style="fill:#F6AC8E;" d="M862.75,886.901c-10.255-4.898-21.16-9.068-30.461-16.23c-0.879-0.677-1.745-1.378-2.597-2.104
	c-3.579-3.048-6.909-6.517-9.934-10.349c-1.699-2.152-9.396-10.855-8.894-14.083c-2.549,16.403,1.981,33.639,11.653,44.332
	c9.672,10.692,24.188,14.513,37.336,9.828c1.734-0.618,3.513-1.427,4.804-3.026c1.291-1.6,1.929-4.194,1.024-5.99
	C865.053,888.036,863.868,887.436,862.75,886.901z"/>
<path style="fill:#F6AC8E;" d="M412.003,795.674l1.405,0.468c-6.434-15.685-18.417-28.708-32.226-39.117
	c-14.075-10.61-25.86-14.159-41.779-22.235c29.794,22.148,54.622,50.107,72.638,81.797c2.881-4.462,3.834-9.337,3.167-14.146
	c-1.534-0.556-3.077-1.089-4.63-1.599C407.311,799.77,408.719,794.597,412.003,795.674z"/>
<path style="fill:#F6AC8E;" d="M487.939,844.68c11.296,20.847,22.113,42.085,36.261,61.198c1.928,2.605,3.914,5.165,5.952,7.684
	c-7.382-19.109-10.825-39.609-9.977-60.179c-4.537-5.094-8.794-10.443-12.967-15.827c-7.517-9.697-14.293-20.014-23.106-28.623
	c-4.154-4.058-8.585-7.705-13.224-11.033c3.238,14.236,7.967,28.12,14.122,41.411C485.992,841.104,486.971,842.895,487.939,844.68z"
	/>
<path style="fill:#F6AC8E;" d="M432.433,777.251c-2.584-1.109-5.176-2.196-7.772-3.27c-5.318-2.199-10.642-4.393-15.93-6.654
	c1.859,2.034,3.716,4.07,5.558,6.114c9.875,10.965,19.082,22.189,26.647,34.831c12.641,6.972,24.368,15.547,34.837,25.509
	C464.025,813.256,450.186,792.763,432.433,777.251z"/>
<path style="fill:#F6AC8E;" d="M514.879,902.009c-10.693-15.54-19.514-32.217-28.434-48.815l-0.131-0.146
	c-11.421-14.029-25.057-26.052-40.28-35.579c11.989,23.225,19.004,48.592,27.575,73.224c16.382,3.773,32.118,10.07,46.57,18.703
	C518.366,906.969,516.598,904.507,514.879,902.009z"/>
<path style="fill:#F6AC8E;" d="M464.515,793.611c-5.695-3.618-11.64-6.845-17.731-9.822c8.356,8.961,15.807,18.94,22.604,29.333
	C467.461,806.698,465.834,800.189,464.515,793.611z"/>
<path style="fill:#F6AC8E;" d="M568.628,952.2c10.089,8.459,20.607,16.339,31.398,23.837c-14.74-21.583-23.361-46.963-24.669-73.254
	c-0.172-3.453,5.189-3.432,5.359,0c1.513,30.411,13.33,59.752,33.334,82.707c19.961,13.077,40.605,25.171,61.012,37.449
	c5.489,3.303,11.016,6.667,16.55,10.104c-18.087-23.894-28.395-53.236-28.985-83.395c-0.068-3.455,5.291-3.444,5.359,0
	c0.681,34.809,14.846,68.455,39.229,93.294c2.013,1.308,4.024,2.626,6.029,3.957l0.736,0.364l0.913,0.732
	c33.755,22.524,66.143,48.424,89.97,80.381c-5.49-17.813-8.065-36.382-7.67-54.998c-7.154-1.911-14.364-3.63-21.386-5.983
	c-11.117-3.725-21.57-9.464-29.567-18.137c-9.983-10.826-16.248-23.768-20.447-37.777c-4.221-14.084-6.519-28.654-10.501-42.8
	c-3.601-12.794-9.106-25.085-17.095-35.766c-13.318-17.806-33.397-27.717-54.562-33.134c-22.928-5.867-46.778-6.478-69.625-12.785
	c-17.748-4.899-33.718-13.331-46.867-26.262c-0.582-0.573-1.157-1.152-1.729-1.735c-0.062,23.917,5.759,47.52,17.078,68.671
	C550.691,936.372,559.479,944.528,568.628,952.2z"/>
<path style="fill:#F6AC8E;" d="M811.683,1148.297c-14.749-24.237-34.612-45.38-56.452-63.797
	c-14.184-11.96-29.189-22.751-44.615-32.938c-20.356-10.116-42.544-15.853-65.018-17.044c2.12,2.713,4.132,5.53,6.021,8.472
	c6.959,10.831,12.332,22.582,17.465,34.357c5.306,12.175,10.41,24.945,16.888,36.812
	C730.516,1108.23,776.339,1120.7,811.683,1148.297z"/>
<path style="fill:#F6AC8E;" d="M554.409,946.871c-5.305-4.839-10.438-9.868-15.365-15.089c-0.38-0.214-0.722-0.552-0.985-1.042
	l-0.01-0.017c-2.224-2.383-4.406-4.806-6.541-7.269c-16.69-12.554-35.675-21.654-55.77-26.763
	c8.089,22.227,20.118,41.64,39.132,56.151c5.792,4.42,11.939,8.267,18.293,11.765c18.187,0.004,36.307,2.892,53.636,8.573
	C575.596,964.986,564.742,956.296,554.409,946.871z"/>
<path style="fill:#F6AC8E;" d="M688.82,1119.154c5.125,8.602,11.131,16.588,18.666,23.344
	c17.514,15.705,39.804,20.941,62.861,20.148c14.454-0.497,29.612-2.914,44.744-4.596
	C780.736,1127.994,734.078,1113.665,688.82,1119.154z"/>
<path style="fill:#F6AC8E;" d="M876.215,1162.468c-9.478-21.703-16.236-45.799-32.606-63.522
	c-9.396-10.174-21.191-17.488-34.287-21.965c-2.254-0.771-4.529-1.471-6.816-2.132c-0.351,25.872,5.226,51.628,16.574,75.194
	c1.352,2.371,2.655,4.774,3.91,7.21C841.404,1155.61,859.588,1155.744,876.215,1162.468z"/>
<path style="fill:#F6AC8E;" d="M611.686,990.334l-1.181-0.775c-1.264-0.83-2.526-1.665-3.785-2.503
	c-19.605-9.689-40.897-15.322-62.502-16.752c8.09,3.924,16.362,7.509,24.535,11.174c20.156,9.038,40.073,18.942,57.19,33.063
	c5.441,4.489,10.475,9.279,15.068,14.468c15.488,0.389,30.885,2.867,45.745,7.378
	C661.767,1020.978,636.217,1006.373,611.686,990.334z"/>
<path style="fill:#403B50;" d="M802.507,1074.849c0.176-12.986,1.844-26.001,5.026-38.784c0.833-3.347-4.334-4.774-5.168-1.424
	c-3.18,12.774-4.895,25.767-5.17,38.737c-0.396,18.616,2.18,37.184,7.67,54.998c-23.826-31.957-56.215-57.857-89.97-80.381
	l-0.913-0.732l-0.736-0.364c-2.006-1.331-4.016-2.649-6.029-3.957c-24.383-24.838-38.548-58.484-39.229-93.294
	c-0.068-3.444-5.427-3.455-5.359,0c0.59,30.158,10.898,59.501,28.985,83.395c-5.534-3.437-11.061-6.802-16.55-10.104
	c-20.407-12.279-41.052-24.373-61.012-37.449c-20.005-22.954-31.822-52.295-33.334-82.707c-0.17-3.432-5.531-3.453-5.359,0
	c1.308,26.291,9.929,51.671,24.669,73.254c-10.791-7.498-21.31-15.377-31.398-23.837c-9.15-7.672-17.937-15.828-26.136-24.53
	c-11.318-21.151-17.139-44.755-17.078-68.671c0.006-2.33,0.065-4.663,0.183-6.997c0.174-3.447-5.185-3.438-5.359,0l-0.063,1.381
	c-0.848,20.57,2.595,41.07,9.977,60.179c-2.037-2.519-4.024-5.079-5.952-7.684c-14.148-19.113-24.965-40.351-36.261-61.198
	c-0.968-1.786-1.947-3.577-2.938-5.369c-6.156-13.291-10.884-27.175-14.122-41.411c-2.638-11.595-4.29-23.423-4.918-35.353
	c-0.18-3.431-5.54-3.452-5.359,0c0.55,10.468,1.864,20.847,3.913,31.064c1.319,6.578,2.946,13.087,4.873,19.511
	c-6.797-10.393-14.248-20.372-22.604-29.333c-14.576-15.63-31.909-28.162-53.349-34.379c-3.319-0.962-4.736,4.208-1.425,5.168
	c15.496,4.494,28.798,12.517,40.423,22.674c17.753,15.512,31.592,36.004,43.34,56.53c-10.469-9.962-22.196-18.537-34.837-25.509
	c-8.774-4.84-17.989-8.907-27.529-12.13l-1.405-0.468c-3.284-1.078-4.692,4.095-1.424,5.167c1.553,0.51,3.096,1.043,4.63,1.599
	c10.81,3.915,21.138,8.966,30.825,15.028c15.223,9.528,28.859,21.551,40.28,35.579l0.131,0.146
	c8.921,16.598,17.741,33.274,28.434,48.815c1.719,2.498,3.487,4.96,5.3,7.387c-14.452-8.633-30.188-14.93-46.57-18.703
	c-8.363-1.926-16.895-3.195-25.51-3.779c-3.443-0.233-3.428,5.127,0,5.359c9.366,0.634,18.615,2.125,27.641,4.419
	c20.096,5.108,39.08,14.208,55.77,26.763c2.135,2.463,4.316,4.886,6.541,7.269l0.01,0.017c0.263,0.489,0.605,0.828,0.985,1.042
	c4.927,5.221,10.06,10.249,15.365,15.089c10.333,9.425,21.187,18.115,32.39,26.31c-17.329-5.681-35.449-8.569-53.636-8.573
	c-13.383-0.003-26.801,1.553-39.966,4.708c-3.352,0.804-1.933,5.973,1.424,5.168c16.302-3.907,33.041-5.277,49.598-4.181
	c21.605,1.43,42.897,7.063,62.502,16.752c1.258,0.838,2.52,1.672,3.785,2.503l1.181,0.775c24.531,16.04,50.081,30.644,75.072,46.053
	c-14.86-4.511-30.257-6.989-45.745-7.378c-14.798-0.372-29.677,1.162-44.247,4.653c-3.352,0.803-1.933,5.973,1.424,5.168
	c15.583-3.735,31.566-5.151,47.407-4.311c22.474,1.191,44.662,6.928,65.018,17.044c15.427,10.187,30.432,20.977,44.615,32.938
	c21.84,18.417,41.703,39.559,56.452,63.797c-35.345-27.597-81.168-40.067-125.711-34.137c-2.683,0.357-5.362,0.777-8.034,1.268
	c-3.387,0.623-1.952,5.789,1.424,5.168c3.143-0.578,6.296-1.057,9.457-1.441c45.258-5.489,91.916,8.839,126.271,38.896
	c1.311,1.147,2.607,2.315,3.882,3.508l0.168,0.143c5.081,10.067,9.268,20.632,12.362,31.719c0.926,3.317,6.098,1.908,5.168-1.425
	c-3.425-12.273-8.055-23.828-13.68-34.743c-1.255-2.435-2.558-4.838-3.91-7.21C807.733,1126.477,802.156,1100.721,802.507,1074.849z
	"/>
<path style="fill:#F6AC8E;" d="M654.59,854.36c5.601,2.205,11,4.924,16.107,8.108c1.216,0.758,2.415,1.542,3.596,2.352
	c12.497,8.569,22.83,20.25,33.545,30.857c1.168,1.156,2.442,2.369,4.061,2.653c2.34,0.41,4.636-1.371,5.551-3.563
	c0.915-2.192,0.751-4.674,0.417-7.026c-2.533-17.84-14.519-34.058-30.831-41.713c-16.311-7.656-36.446-6.515-51.787,2.936
	C638.267,847.104,651.445,853.122,654.59,854.36z"/>
<path style="fill:#F6AC8E;" d="M494.652,998.068c-7.791-9.178-16.46-18.116-22.519-28.589c-0.573-0.99-1.124-1.992-1.653-3.006
	c-2.223-4.26-4.058-8.724-5.473-13.317c-0.794-2.579-4.78-13.438-3.116-15.727c-8.46,11.637-10.597,27.596-5.497,41.049
	c5.099,13.453,17.28,23.985,31.327,27.09c1.853,0.409,3.818,0.692,5.62,0.096c1.801-0.595,3.359-2.314,3.176-4.202
	C496.388,1000.156,495.501,999.068,494.652,998.068z"/>
<path style="fill:#F6AC8E;" d="M845.686,1050.315c4.873,5.2,9.272,10.847,13.122,16.845c0.916,1.427,1.801,2.874,2.655,4.34
	c9.026,15.506,14.158,33.244,20.243,50.028c0.663,1.83,1.411,3.773,2.999,4.897c2.296,1.626,5.655,0.884,7.747-0.997
	c2.091-1.881,3.174-4.621,4.009-7.307c6.337-20.372,1.736-43.804-11.834-60.267c-13.57-16.464-35.693-25.453-56.899-23.121
	C833.177,1037.178,842.949,1047.395,845.686,1050.315z"/>
<path style="fill:#F6AC8E;" d="M739.652,1237.86c-1.055-0.908-2.38-1.009-3.617-1.074c-11.349-0.597-23.02-0.272-34.354-3.326
	c-1.072-0.288-2.14-0.605-3.205-0.948c-4.474-1.445-8.879-3.374-13.141-5.756c-2.393-1.338-12.837-6.429-13.609-9.602
	c3.928,16.129,14.714,30.315,27.744,36.488c13.029,6.173,27.903,4.143,38.253-5.222c1.364-1.235,2.699-2.663,3.279-4.636
	C741.581,1241.813,741.177,1239.172,739.652,1237.86z"/>
<path style="fill:#363D1E;" d="M969.232,1598.065c-20.581,31.521-39.204,64.255-56.043,97.894
	c23.641-77.135,41.852-155.932,54.603-235.595c1.514-9.456,2.952-18.925,4.315-28.403c0.475-0.797,0.825-1.666,1.018-2.503
	c15.085-65.354,36.32-129.169,63.318-190.567c25.603-58.226,56.193-114.246,91.283-167.295c-3.478-2.318-6.845-4.789-10.083-7.411
	c-30.021,45.771-56.825,93.675-79.975,143.266c-22.068,47.271-40.857,96.125-56.028,146.058
	c6.756-68.063,9.618-136.503,8.469-204.915c-1.275-75.943-7.327-151.792-18.325-226.931c-3.801,0.226-7.616,0.308-11.431,0.246
	c9.371,63.043,15.262,126.604,17.699,190.292c3.933,102.791-1.363,206.01-15.437,307.901
	c-11.828,85.629-30.094,170.411-54.56,253.332c5.586-49.26,6.629-98.991,3.558-148.542c-4.439-71.637-17.562-142.711-37.881-211.522
	c-8.37-28.344-18-56.329-28.831-83.843c-3.701,1.629-7.47,3.113-11.295,4.447c7.877,19.785,15.126,39.821,21.73,60.069
	c21.742,66.664,36.444,135.61,43.058,205.435c6.562,69.281,5.086,139.619-6.204,208.345c-1.402,8.536-2.961,17.045-4.646,25.529
	c-0.295,1.485-0.401,3.373-0.091,5.14c-31.231,92.161-70.511,181.63-117.441,266.876c-6.095,11.071-12.328,22.065-18.673,32.995
	c-3.944,6.794,3.822,17.752,9.098,8.664c50.829-87.557,93.323-179.725,127.481-275.008c0.323-0.375,0.6-0.82,0.812-1.329
	c41.522-99.134,97.002-192.756,169.687-272.3c2.169-2.374,4.354-4.734,6.552-7.079c-2.574-2.074-5.065-4.245-7.465-6.506
	C1024.92,1519.908,995.436,1557.93,969.232,1598.065z"/>
<path style="fill:#F6AC8E;" d="M1511.1,1207.926l1.135-0.129c3.43-0.373,3.392,4.991,0,5.359c-1.395,0.152-2.787,0.326-4.175,0.52
	c-1.29,3.819-1.304,7.949,0.268,12.077c20.812-23.423,46.685-42.493,75.695-55.789c-14.828,3.944-25.371,4.822-39.103,11.227
	C1531.595,1187.406,1519.313,1196.089,1511.1,1207.926z"/>
<path style="fill:#F6AC8E;" d="M1163.213,1388.746c15.734-8.86,32.125-16.189,48.837-22.768c0.295-0.287,0.685-0.515,1.183-0.645
	l1.359-0.348c1.505-0.585,3.013-1.164,4.523-1.737l0.163-0.119c25.029-16.438,42.965-42.336,49.734-71.484
	c0.781-3.363,5.948-1.931,5.168,1.424c-5.754,24.775-19.328,47.229-38.236,63.995c23.981-8.554,48.287-16.344,71.963-25.578
	l0.04-0.032c20.974-15.65,36.141-38.34,42.82-63.614c0.882-3.337,6.05-1.913,5.168,1.424c-5.628,21.292-17.004,40.612-32.594,55.934
	c13.443-5.739,26.608-12.117,39.313-19.555c5.481-3.209,10.824-6.62,16.013-10.24c13.102-15.544,22.084-34.144,26.319-53.966
	l-1.328,0.86c-13.368,8.522-28.302,12.757-44.1,13.703c-20.337,1.219-40.499-2.532-60.826-1.697
	c-18.764,0.77-37.418,5.514-51.799,18.105c-8.627,7.552-15.452,16.903-20.767,27.016c-5.877,11.182-10.414,23.022-16.48,34.11
	c-6.034,11.028-13.616,20.789-23.945,28.107c-8.274,5.863-18.088,8.819-28.101,9.964c-6.191,0.708-12.426,0.873-18.648,1.186
	c-2.896,15.229-8.133,29.928-15.532,43.561C1135.641,1405.819,1149.124,1396.68,1163.213,1388.746z"/>
<path style="fill:#F6AC8E;" d="M1108.901,1440.97c12.253,4.082,24.399,8.736,36.302,11.698c19.245,4.788,38.922,4.37,56.455-5.703
	c7.414-4.26,13.799-9.782,19.567-15.968C1184.285,1418.52,1143.105,1422.048,1108.901,1440.97z"/>
<path style="fill:#F6AC8E;" d="M1133.47,1373.126c-1.911,0.143-3.819,0.317-5.724,0.547c-11.811,1.423-23.035,5.465-32.754,12.339
	c-16.932,11.976-26.922,31.027-38.77,47.581c15.083-2.663,30.296,0.416,45.386,5.038c1.188-1.445,2.399-2.87,3.633-4.274
	C1119.481,1416.393,1129.051,1395.355,1133.47,1373.126z"/>
<path style="fill:#F6AC8E;" d="M1484.014,1192.212c-5.148,1.315-10.23,2.831-15.195,4.656c-1.969,4.583-4.125,9.08-6.458,13.486
	C1469.142,1203.78,1476.347,1197.607,1484.014,1192.212z"/>
<path style="fill:#F6AC8E;" d="M1215.385,1370.314c-37.234,14.703-73.802,33.41-100.981,61.818
	c34.414-16.248,74.752-18.37,110.676-5.463c7.455-8.739,13.953-18.44,20.513-27.619c6.42-8.983,13.038-17.902,20.826-25.765
	c1.998-2.017,4.065-3.924,6.199-5.732C1253.66,1364.617,1234.147,1365.507,1215.385,1370.314z"/>
<path style="fill:#F6AC8E;" d="M1453.679,1227.225c10.169-5.997,21.01-10.733,32.302-14.117
	c8.506-9.061,18.087-16.711,28.168-24.033c1.914-1.39,3.84-2.769,5.766-4.147c-4.851,0.955-9.718,1.848-14.583,2.748
	c-2.055,0.379-4.111,0.768-6.164,1.171C1481.984,1198.244,1467.167,1212.356,1453.679,1227.225z"/>
<path style="fill:#F6AC8E;" d="M1439.605,1243.364c-1.235,1.452-2.46,2.898-3.677,4.333c-10.612,12.518-21.39,24.92-33.585,35.892
	c13.324-4.345,27.189-6.654,41.178-6.875c11.41-18.879,21.708-38.606,35.634-55.762c-14.116,5.208-27.388,12.682-39.153,22.145
	L1439.605,1243.364z"/>
<path style="fill:#F6AC8E;" d="M1388.947,1294.589c-2.212,1.668-4.452,3.295-6.723,4.88l-0.068,0.082l-1.227,0.815
	c-8.951,6.165-18.319,11.718-27.959,16.75c-5.712,2.982-11.505,5.786-17.359,8.451c15.107-1.39,30.337-0.443,45.13,2.774
	c5.721-1.76,11.336-3.832,16.769-6.406c18.452-8.742,31.977-22.779,42.714-39.859c-17.679,0.724-35.176,4.962-51.259,12.504
	L1388.947,1294.589z"/>
<path style="fill:#F6AC8E;" d="M1314.096,1334.694c-1.118,0.444-2.237,0.885-3.359,1.322l-0.087,0.065l-1.407,0.514
	c-18.281,7.075-36.91,13.315-55.415,19.686c-4.342,1.495-8.719,3.019-13.113,4.581c12.56-0.839,25.174-0.069,37.52,2.27
	c4.673-3.421,9.628-6.453,14.855-9.177c16.916-8.813,35.433-13.58,53.996-17.576c7.205-1.551,14.473-3.025,21.662-4.774
	C1350.608,1329.118,1332.01,1330.122,1314.096,1334.694z"/>
<path style="fill:#F6AC8E;" d="M1408.46,1270.381c12.173-12.336,23.015-25.872,34.327-38.984
	c7.389-9.873,13.713-20.488,18.894-31.642c-4.315,1.916-8.519,4.115-12.575,6.682c-8.949,5.663-16.49,13.127-24.544,19.936
	c-4.339,3.669-8.738,7.296-13.313,10.681c-2.771,16.792-8.907,32.812-17.875,47.157
	C1398.614,1279.859,1403.651,1275.255,1408.46,1270.381z"/>
<path style="fill:#403B50;" d="M1512.234,1207.798l-1.135,0.129c-8.554,0.996-16.953,2.736-25.119,5.182
	c-11.292,3.384-22.133,8.12-32.302,14.117c13.488-14.87,28.305-28.981,45.488-38.378c11.212-6.131,23.432-10.255,36.949-11.27
	c3.418-0.257,3.446-5.618,0-5.359c-19.432,1.459-36.698,9.154-52.103,19.994c-7.667,5.395-14.871,11.568-21.653,18.141
	c2.332-4.406,4.488-8.903,6.458-13.486c3.477-8.091,6.379-16.442,8.669-24.997c0.893-3.335-4.275-4.758-5.168-1.425
	c-2.697,10.074-6.261,19.884-10.639,29.31c-5.181,11.154-11.505,21.769-18.894,31.642c-11.312,13.112-22.154,26.648-34.327,38.984
	c-4.809,4.873-9.846,9.478-15.086,13.829c8.968-14.345,15.105-30.365,17.875-47.157l0.107-0.631
	c0.539-3.374-4.624-4.826-5.168-1.424c-0.345,2.159-0.747,4.306-1.203,6.439c-4.235,19.822-13.217,38.422-26.319,53.966
	c-5.189,3.621-10.532,7.031-16.013,10.24c-12.705,7.438-25.87,13.816-39.313,19.555c15.59-15.322,26.966-34.642,32.594-55.934
	c0.882-3.337-4.286-4.761-5.168-1.424c-6.679,25.273-21.846,47.964-42.82,63.614l-0.04,0.032
	c-23.676,9.234-47.981,17.024-71.963,25.578c18.908-16.767,32.483-39.221,38.236-63.995c0.78-3.355-4.386-4.788-5.168-1.424
	c-6.77,29.148-24.705,55.045-49.734,71.484l-0.163,0.119c-1.51,0.573-3.018,1.153-4.523,1.737l-1.359,0.348
	c-0.498,0.13-0.887,0.358-1.183,0.645c-16.712,6.579-33.103,13.908-48.837,22.768c-14.089,7.934-27.571,17.073-39.754,27.605
	c7.398-13.632,12.636-28.331,15.532-43.561c2.073-10.906,2.949-22.084,2.555-33.336c-0.121-3.439-5.481-3.455-5.359,0
	c0.398,11.363-0.528,22.663-2.717,33.672c-4.419,22.228-13.989,43.267-28.228,61.23c-1.234,1.405-2.446,2.829-3.633,4.274
	c-6.721,8.18-12.683,17.017-17.684,26.567c-1.599,3.052,3.025,5.764,4.627,2.705c4.601-8.785,9.939-16.881,15.891-24.368l0.17-0.092
	c1.416-0.852,2.847-1.674,4.289-2.472c34.204-18.922,75.383-22.45,112.324-9.973c2.807,0.948,5.59,1.985,8.342,3.117
	c3.187,1.311,4.575-3.871,1.425-5.168c-1.957-0.805-3.928-1.564-5.913-2.277c-35.925-12.907-76.262-10.785-110.676,5.463
	c27.179-28.408,63.747-47.115,100.981-61.818c18.762-4.807,38.276-5.697,57.233-2.761c13.498,2.09,26.715,6.118,39.175,12.054
	c3.098,1.476,5.82-3.143,2.705-4.628c-11.596-5.524-23.793-9.485-36.262-11.847c-12.346-2.339-24.96-3.109-37.52-2.27
	c4.394-1.562,8.771-3.086,13.113-4.581c18.505-6.371,37.134-12.611,55.415-19.686l1.407-0.514l0.087-0.065
	c1.121-0.437,2.241-0.878,3.359-1.322c17.914-4.572,36.512-5.577,54.654-3.089c14.349,1.968,28.413,6.119,41.627,12.414
	c3.098,1.476,5.82-3.143,2.705-4.627c-10.376-4.944-21.234-8.636-32.339-11.051c-14.794-3.217-30.023-4.164-45.13-2.774
	c5.854-2.665,11.646-5.469,17.359-8.451c9.64-5.032,19.009-10.586,27.959-16.75l1.227-0.815l0.068-0.082
	c2.27-1.585,4.511-3.212,6.723-4.88l0.02-0.008c16.083-7.541,33.58-11.78,51.259-12.504c8.008-0.328,16.054,0.065,24.022,1.199
	c3.373,0.48,4.83-4.683,1.424-5.167c-7.377-1.05-14.781-1.512-22.152-1.395c-13.989,0.221-27.854,2.53-41.178,6.875
	c12.195-10.972,22.973-23.374,33.585-35.892c1.217-1.435,2.442-2.882,3.677-4.333l0.396-0.267
	c11.765-9.463,25.038-16.936,39.153-22.145c9.33-3.442,19.029-5.895,28.905-7.275c1.388-0.194,2.78-0.368,4.175-0.52
	C1515.626,1212.789,1515.664,1207.425,1512.234,1207.798z"/>
<path style="fill:#F6AC8E;" d="M1241.595,1240.881c1.412,0.051,2.699-0.741,3.889-1.504c10.905-7.004,21.681-14.978,33.72-19.948
	c1.138-0.47,2.287-0.915,3.444-1.335c4.864-1.764,9.889-3.085,14.993-3.938c2.865-0.479,15.021-3.183,17.227-1.08
	c-11.21-10.688-27.935-15.248-43.018-11.726c-15.083,3.521-28.061,15.015-33.38,29.561c-0.701,1.917-1.284,3.975-0.905,5.982
	C1237.943,1238.899,1239.554,1240.807,1241.595,1240.881z"/>
<path style="fill:#F6AC8E;" d="M1439.38,1331.112c-2.01,3.609-4.351,7.034-6.982,10.219c-0.626,0.758-1.269,1.503-1.927,2.232
	c-6.966,7.722-15.853,13.688-24.044,20.011c-0.893,0.69-1.834,1.445-2.174,2.521c-0.492,1.555,0.511,3.278,1.918,4.1
	c1.408,0.823,3.112,0.937,4.742,0.923c12.366-0.099,24.49-6.778,31.182-17.177c6.692-10.399,7.749-24.2,2.716-35.496
	C1445.801,1320.668,1440.509,1329.085,1439.38,1331.112z"/>
<path style="fill:#F6AC8E;" d="M1058.923,1398.188c8.117-13.024,15.603-27.021,25.964-38.444c0.979-1.08,1.982-2.139,3.007-3.175
	c4.31-4.354,9.017-8.316,14.045-11.817c2.823-1.966,12.866-8.81,17.884-9.892c-17.414-5.751-37.622-2.148-51.974,9.268
	c-14.353,11.417-22.41,30.295-20.723,48.557c0.222,2.408,0.643,4.905,2.065,6.86c1.422,1.956,4.114,3.18,6.335,2.224
	C1057.062,1401.108,1058.038,1399.608,1058.923,1398.188z"/>
<path style="fill:#F6AC8E;" d="M1205.22,1521.767c-4.009,1.241-8.057,2.075-12.077,2.49c-0.957,0.099-1.912,0.174-2.865,0.225
	c-10.076,0.541-19.83-1.817-29.48-3.345c-1.052-0.167-2.183-0.319-3.233,0.256c-1.517,0.831-2.328,2.979-2.193,4.741
	c0.135,1.761,1.001,3.201,1.928,4.483c7.029,9.724,19.171,14.089,31.229,11.228c12.059-2.861,23.665-12.86,29.85-25.719
	C1217.163,1518.656,1207.472,1521.071,1205.22,1521.767z"/>
<path style="fill:#F6AC8E;" d="M1567.702,703.778c-1.544,0.415-3.08,0.855-4.608,1.318c-0.804,4.37-0.147,8.871,2.264,13.096
	c18.361-28.534,42.863-53.254,71.684-72.32c-15.208,6.694-26.342,9.391-39.965,18.535c-13.295,8.923-25.043,20.341-31.84,34.488
	l1.041-0.285C1569.618,697.714,1571.03,702.885,1567.702,703.778z"/>
<path style="fill:#F6AC8E;" d="M1165.957,1013.848c0.867-1.467,1.754-2.921,2.661-4.362c12.495-21.855,19.44-46.273,20.484-71.132
	c-2.102,0.487-4.195,1.009-6.273,1.595c-12.4,3.492-23.736,9.689-32.988,18.666c-16.119,15.638-23.629,37.689-33.545,57.377
	C1132.07,1010.597,1148.952,1011.39,1165.957,1013.848z"/>
<path style="fill:#F6AC8E;" d="M1467.481,780.847c10.338-14.642,19.281-30.182,28.754-45.383
	c6.347-11.954,11.432-24.525,15.164-37.495c-4.4,2.819-8.629,5.935-12.629,9.434c-8.63,7.552-15.454,16.796-22.935,25.425
	c-4.096,4.725-8.265,9.414-12.674,13.861c-0.246,18.753-4.267,37.26-11.756,54.353
	C1457.127,794.631,1462.5,787.903,1467.481,780.847z"/>
<path style="fill:#F6AC8E;" d="M1173.564,1015.042c13.901,2.331,27.786,5.323,41.12,6.515c21.39,1.913,42.374-1.817,59.454-15.52
	c7.289-5.848,13.242-12.898,18.415-20.559C1250.887,978.154,1206.966,988.941,1173.564,1015.042z"/>
<path style="fill:#F6AC8E;" d="M1442.549,817.976l-0.826,0.792c-7.647,7.248-15.748,14.021-24.143,20.397
	c-7.045,5.35-14.288,10.404-21.674,15.235c16.217-4.238,32.992-5.921,49.683-4.98c5.958-2.884,11.747-6.093,17.244-9.831
	c18.345-12.473,30.494-29.821,39.14-49.973c-18.849,3.719-36.864,11.161-52.96,21.95
	C1446.901,813.744,1444.743,815.878,1442.549,817.976z"/>
<path style="fill:#F6AC8E;" d="M1372.2,868.969l-1.043,0.604c-17.699,10.241-35.884,19.693-53.933,29.221
	c-5.711,3.015-11.48,6.087-17.269,9.234c13.743-3.257,27.849-4.691,41.935-4.265c4.483-4.517,9.345-8.653,14.561-12.496
	c16.629-12.252,35.646-20.441,54.841-27.814c7.629-2.93,15.343-5.784,22.914-8.942c-19.957,0.271-39.831,4.387-58.363,12.323
	C1374.631,867.55,1373.417,868.262,1372.2,868.969z"/>
<path style="fill:#F6AC8E;" d="M1177.26,1005.734c34.284-23.683,77.369-32.925,118.428-25.118
	c6.576-10.65,11.942-22.19,17.464-33.174c5.37-10.682,10.964-21.33,17.984-31.042c1.857-2.569,3.813-5.022,5.862-7.378
	c-20.795-0.03-41.555,4.112-60.854,12.403C1238.199,943.66,1201.648,970.129,1177.26,1005.734z"/>
<path style="fill:#F6AC8E;" d="M1494.697,748.329l-0.207,0.206c-0.629,1.027-1.255,2.051-1.877,3.072
	c-9.818,16.088-19.765,32.163-31.757,46.735c13.693-7.078,28.414-12.008,43.587-14.626c9.137-22.272,16.906-45.287,29.083-66.108
	C1519.061,725.627,1505.923,735.992,1494.697,748.329z"/>
<path style="fill:#F6AC8E;" d="M1534.227,686.155c-5.559,2.366-11.005,4.954-16.257,7.886c-1.436,5.593-3.11,11.12-5.021,16.565
	C1519.408,701.935,1526.464,693.618,1534.227,686.155z"/>
<path style="fill:#F6AC8E;" d="M1224.723,949.341c14.896-11.622,30.686-21.831,46.917-31.337c0.224-0.363,0.583-0.681,1.104-0.908
	c0.57-0.249,1.141-0.493,1.714-0.735c1.463-0.847,2.929-1.689,4.399-2.525l0.084-0.084c24.048-21.8,39.147-52.408,41.554-84.806
	c0.255-3.424,5.615-3.44,5.359,0c-2.076,27.944-13.032,54.689-30.972,75.987c24.514-13.326,49.534-25.839,73.609-39.822l0.036-0.041
	c19.846-20.282,32.513-46.988,35.47-75.232c0.356-3.401,5.718-3.426,5.359,0c-2.533,24.202-11.654,47.247-26.253,66.508
	c14.656-9.106,28.833-18.958,42.184-30.104c4.499-3.757,8.863-7.655,13.08-11.697c11.48-18.978,18.089-40.455,19.26-62.542
	c-0.498,0.453-0.998,0.904-1.504,1.348c-12.881,11.348-28.155,18.37-44.9,22.019c-21.557,4.696-43.754,4.048-65.364,8.332
	c-19.949,3.954-39.115,12.142-52.403,28.012c-7.971,9.52-13.713,20.664-17.713,32.37c-4.423,12.945-7.301,26.37-11.943,39.245
	c-4.617,12.807-11.101,24.516-20.931,34.069c-7.875,7.653-17.883,12.453-28.405,15.348c-6.59,1.814-13.32,3.038-20.01,4.434
	c-0.565,17.147-3.821,34.108-9.703,50.239C1196.544,973.355,1210.159,960.703,1224.723,949.341z"/>
<path style="fill:#F6AC8E;" d="M1506.247,729.838c10.042-8.393,21.108-15.508,32.899-21.165c7.63-11.231,16.676-21.1,26.323-30.696
	c1.816-1.807,3.646-3.603,5.478-5.399c-5.03,1.832-10.09,3.6-15.145,5.372c-2.316,0.813-4.631,1.636-6.939,2.478
	C1531.885,693.592,1518.279,711.457,1506.247,729.838z"/>
<path style="fill:#403B50;" d="M1165.957,1013.848c-5.885,9.959-10.836,20.51-14.632,31.686c-1.112,3.273,4.063,4.677,5.168,1.424
	c3.431-10.105,7.76-19.599,12.841-28.549l0.443-0.307c1.246-1.043,2.511-2.062,3.788-3.06
	c33.402-26.101,77.323-36.888,118.988-29.563c2.987,0.525,5.963,1.141,8.922,1.854c3.352,0.807,4.782-4.36,1.425-5.168
	c-2.395-0.577-4.8-1.091-7.211-1.549c-41.06-7.807-84.144,1.435-118.428,25.118c24.388-35.605,60.939-62.073,98.885-84.31
	c19.298-8.291,40.058-12.432,60.854-12.403c14.853,0.021,29.723,2.169,44.09,6.456c3.312,0.988,4.727-4.183,1.425-5.168
	c-13.285-3.964-26.944-6.132-40.623-6.546c-14.086-0.426-28.192,1.009-41.935,4.265c5.788-3.146,11.557-6.219,17.269-9.234
	c18.049-9.529,36.234-18.98,53.933-29.221l1.043-0.604c1.217-0.707,2.431-1.419,3.643-2.135
	c18.532-7.936,38.406-12.052,58.363-12.323c15.628-0.212,31.306,1.931,46.426,6.442c3.312,0.988,4.727-4.182,1.425-5.167
	c-11.94-3.562-24.181-5.675-36.467-6.367c-16.692-0.941-33.467,0.742-49.683,4.98c7.386-4.832,14.629-9.885,21.674-15.235
	c8.395-6.376,16.495-13.149,24.143-20.397l0.826-0.792c2.193-2.098,4.352-4.232,6.465-6.411
	c16.096-10.788,34.111-18.231,52.96-21.95c8.577-1.692,17.326-2.613,26.147-2.728c3.446-0.044,3.456-5.404,0-5.359
	c-7.96,0.103-15.879,0.84-23.679,2.187c-15.173,2.619-29.895,7.549-43.587,14.626c11.992-14.572,21.938-30.647,31.757-46.735
	c0.623-1.021,1.249-2.045,1.877-3.072l0.207-0.206c11.226-12.337,24.365-22.702,38.829-30.721
	c9.354-5.186,19.264-9.39,29.569-12.512c1.528-0.463,3.063-0.903,4.608-1.318c3.328-0.893,1.915-6.064-1.424-5.167l-1.041,0.285
	c-8.99,2.481-17.722,5.762-26.091,9.777c-11.79,5.657-22.857,12.772-32.899,21.165c12.032-18.381,25.638-36.246,42.615-49.41
	c11.185-8.673,23.833-15.307,38.457-18.702c3.359-0.78,1.937-5.948-1.424-5.168c-20.177,4.686-37.157,15.646-51.668,29.598
	c-7.763,7.463-14.818,15.78-21.279,24.451c1.912-5.445,3.586-10.972,5.021-16.565c2.414-9.399,4.154-18.984,5.199-28.69
	c0.369-3.425-4.993-3.399-5.359,0c-1.191,11.061-3.346,21.973-6.409,32.617c-3.732,12.97-8.817,25.541-15.164,37.495
	c-9.473,15.201-18.416,30.741-28.754,45.383c-4.981,7.056-10.354,13.784-16.075,20.195c7.489-17.093,11.51-35.6,11.756-54.353
	l0.016-1.236c0.015-3.449-5.344-3.453-5.359,0c-0.009,2.189-0.074,4.373-0.19,6.552c-1.172,22.087-7.781,43.563-19.26,62.542
	c-4.216,4.042-8.58,7.94-13.08,11.697c-13.351,11.146-27.528,20.998-42.184,30.104c14.599-19.261,23.72-42.307,26.253-66.508
	c0.359-3.426-5.003-3.401-5.359,0c-2.957,28.244-15.624,54.95-35.47,75.232l-0.036,0.041
	c-24.075,13.983-49.096,26.495-73.609,39.822c17.94-21.298,28.896-48.043,30.972-75.987c0.256-3.44-5.105-3.424-5.359,0
	c-2.407,32.398-17.506,63.006-41.554,84.806l-0.084,0.084c-1.47,0.837-2.936,1.678-4.399,2.525
	c-0.573,0.242-1.144,0.486-1.714,0.735c-0.522,0.227-0.88,0.544-1.104,0.908c-16.231,9.506-32.021,19.716-46.917,31.337
	c-14.564,11.362-28.179,24.014-39.969,38.079c5.882-16.131,9.137-33.092,9.703-50.239c0.4-12.12-0.542-24.333-2.856-36.413
	c-0.648-3.384-5.814-1.951-5.168,1.424c2.297,11.996,3.173,24.129,2.668,36.16c-1.044,24.859-7.988,49.277-20.484,71.132
	C1167.711,1010.927,1166.824,1012.38,1165.957,1013.848z"/>
<path style="fill:#F6AC8E;" d="M1282.489,778.873c1.519-0.181,2.765-1.243,3.909-2.258c10.5-9.313,20.699-19.643,32.751-26.969
	c1.139-0.692,2.294-1.36,3.463-2.002c4.91-2.7,10.067-4.951,15.384-6.715c2.986-0.991,15.541-5.912,18.252-4.029
	c-13.777-9.567-32.433-11.654-47.984-5.371c-15.551,6.284-27.519,20.746-30.783,37.198c-0.43,2.169-0.709,4.468,0.03,6.552
	C1278.251,777.362,1280.294,779.135,1282.489,778.873z"/>
<path style="fill:#F6AC8E;" d="M1509.163,842.422c-1.549,4.197-3.482,8.252-5.766,12.099c-0.543,0.915-1.107,1.819-1.69,2.709
	c-6.166,9.424-14.678,17.29-22.388,25.422c-0.84,0.886-1.721,1.853-1.906,3.06c-0.267,1.745,1.094,3.422,2.737,4.067
	c1.644,0.645,3.485,0.483,5.227,0.197c13.215-2.169,25.072-11.337,30.499-23.58c5.426-12.244,4.253-27.187-3.016-38.434
	C1514.292,830.176,1510.033,840.066,1509.163,842.422z"/>
<path style="fill:#F6AC8E;" d="M1137.335,928.295c3.884-5.378,8.26-10.401,13.055-14.986c2.692-2.575,12.297-11.572,17.486-13.568
	c-19.592-3.249-40.612,3.978-54.064,18.588c-13.452,14.609-18.924,36.153-14.073,55.411c0.639,2.539,1.506,5.14,3.354,6.995
	c1.848,1.855,4.932,2.716,7.149,1.323c1.534-0.964,2.328-2.733,3.037-4.399c6.512-15.289,12.187-31.514,21.367-45.465
	C1135.514,930.875,1136.411,929.576,1137.335,928.295z"/>
<path style="fill:#F6AC8E;" d="M1290.428,1085.478c-4.083,1.996-8.276,3.564-12.508,4.68c-1.007,0.265-2.016,0.505-3.027,0.718
	c-10.69,2.26-21.521,1.363-32.1,1.339c-1.153-0.003-2.39,0.023-3.417,0.813c-1.484,1.142-1.994,3.576-1.556,5.438
	c0.438,1.862,1.605,3.258,2.811,4.475c9.143,9.232,22.862,11.877,35.287,6.804c12.425-5.073,23.174-17.708,27.647-32.498
	C1302.686,1080.158,1292.72,1084.358,1290.428,1085.478z"/>
</svg>
